<svg xmlns="http://www.w3.org/2000/svg" xmlns:xlink="http://www.w3.org/1999/xlink" viewBox="0 0 633 399.32"><defs><style>.cls-1{fill:#fff;}.cls-2{mask:url(#mask);}.cls-3{fill:#f4a501;}.cls-4{fill:#333;}.cls-5{fill:#d65b02;}.cls-6{fill:#e8e8e8;}.cls-7{fill:#d1d1d1;}.cls-8{fill:#f27f03;}.cls-9{fill:#d30000;fill-opacity:0.7;}</style><mask id="mask" x="0" y="0" width="633" height="399.32" maskUnits="userSpaceOnUse"><path class="cls-1" d="M30,0H603a30,30,0,0,1,30,30V369.32a30,30,0,0,1-30,30H30a30,30,0,0,1-30-30V30A30,30,0,0,1,30,0Z"/></mask></defs><g id="圖層_2" data-name="圖層 2"><g id="圖層_1-2" data-name="圖層 1"><g class="cls-2"><path class="cls-3" d="M30,399.32H603a30,30,0,0,0,30-30V30A30,30,0,0,0,603,0H30A30,30,0,0,0,0,30V369.32A30,30,0,0,0,30,399.32Z"/></g><rect class="cls-4" y="63.75" width="633" height="85.79"/><path class="cls-5" d="M36.08,325.2c-.06-.81.45-.76,1-.75H49.49A3.85,3.85,0,0,1,53.6,328c.2,1.26.47,2.51.72,3.77L57,345.2l.1.38a3.08,3.08,0,0,0,.37-.53L62,333.45c1.13-2.85,2.25-5.71,3.39-8.55a.75.75,0,0,1,.51-.43c2.62,0,5.25,0,8,0l-1.38,3.29c-1.76,4.24-3.51,8.48-5.3,12.71Q64.15,347.74,61,355a.85.85,0,0,1-.64.41c-2.48,0-5,0-7.45,0a.6.6,0,0,1-.69-.53c-.71-2.79-1.44-5.58-2.16-8.37Q48,338.28,45.83,330A3.32,3.32,0,0,0,44,327.8a37.52,37.52,0,0,0-7.3-2.45Z"/><path class="cls-5" d="M84.66,354.26,86,347.81c1.47.48,2.87,1,4.33,1.38a12.39,12.39,0,0,0,6.14.08,6.6,6.6,0,0,0,1.94-1c1.26-.88,1-3.15-.34-4s-2.65-1.5-4-2.26a17.52,17.52,0,0,1-4-2.8,7,7,0,0,1-2.17-4.78,8.46,8.46,0,0,1,2.2-6.07,14,14,0,0,1,9.19-4.29,21.13,21.13,0,0,1,9.16,1c.44.15.57.31.46.78-.41,1.75-.76,3.51-1.14,5.27a3.84,3.84,0,0,1-.14.4c-1-.3-2-.66-2.92-.87a12,12,0,0,0-6.55,0,3.54,3.54,0,0,0-1.53,1.08,2.06,2.06,0,0,0,.57,3.08c1.36.88,2.8,1.64,4.18,2.49a27.92,27.92,0,0,1,3.78,2.52,6.7,6.7,0,0,1,2.36,4.68,9.42,9.42,0,0,1-1.73,6.38,11,11,0,0,1-4.9,3.61,20.08,20.08,0,0,1-11.14,1c-1.34-.22-2.66-.56-4-.87A9.74,9.74,0,0,1,84.66,354.26Z"/><path class="cls-5" d="M85.55,324.46c-2.23,10.36-4.44,20.63-6.64,30.91H71c.45-2.1.89-4.18,1.34-6.25q1.24-5.87,2.5-11.73c.87-4.09,1.75-8.18,2.61-12.27.1-.47.27-.69.82-.68C80.66,324.48,83.06,324.46,85.55,324.46Z"/><path class="cls-5" d="M136.13,354.88l-2.43-11.61-2.52-12.11q-.65-3.06-1.27-6.12c-.07-.33-.16-.6-.63-.59-2.11,0-4.23,0-6.34,0a3.62,3.62,0,0,0-3.41,2.35q-1.56,3.56-3.08,7.13-1.8,4.23-3.57,8.48l-4.59,10.94c-.27.64-.52,1.28-.81,2h7.92a.49.49,0,0,0,.34-.29c.52-1.27,1-2.54,1.51-3.83a.71.71,0,0,1,.8-.57q4.59,0,9.2,0c.56,0,.74.22.83.73.21,1.22.48,2.42.75,3.63a.59.59,0,0,0,.41.33c2.27,0,4.55,0,6.89,0A2.86,2.86,0,0,0,136.13,354.88Zm-16.44-10.33c1.43-3.94,2.83-7.82,4.24-11.69h.27c.8,3.87,1.61,7.74,2.43,11.68Z"/><rect class="cls-6" x="36.08" y="189.37" width="560.84" height="68.87" rx="6.71"/><rect class="cls-7" x="480.18" y="188.55" width="116.74" height="69.68" rx="6.8"/><rect class="cls-7" x="463.3" y="188.55" width="122.84" height="69.68"/><rect class="cls-7" x="36.08" y="229.95" width="560.84" height="10.65"/><rect class="cls-7" x="36.08" y="207.01" width="560.84" height="10.65"/><circle class="cls-8" cx="571.9" cy="338.7" r="25.02"/><circle class="cls-9" cx="539.84" cy="338.7" r="25.02"/></g></g></svg>