<svg xmlns="http://www.w3.org/2000/svg" viewBox="0 0 30 30" width="50" height="50"><defs><style>.cls-1{fill:#000333;}.cls-2{fill:none;}</style></defs><g id="Layer_2" data-name="Layer 2"><g id="Layer_1-2" data-name="Layer 1"><g id="icon_-_member-2" data-name="icon - member-2"><path class="cls-1" d="M24,24H6V21.21c0-2.74,4-4.89,9-4.89s9,2.15,9,4.89ZM7.48,22.52h15V21.21c0-1.61-3.09-3.39-7.52-3.39S7.48,19.6,7.48,21.21ZM15,15.75a4.88,4.88,0,0,1-4.89-4.89h0A4.89,4.89,0,1,1,15,15.75Zm-3.39-4.89a3.41,3.41,0,0,0,1,2.4,3.36,3.36,0,0,0,2.4,1h0a3.39,3.39,0,1,0-3.39-3.39Z"/></g><rect class="cls-2" width="30" height="30"/></g></g></svg>