<svg xmlns="http://www.w3.org/2000/svg" viewBox="0 0 30 30" width="50" height="50"><defs><style>.cls-1{fill:#000333;}.cls-2{fill:none;}</style></defs><g id="Layer_2" data-name="Layer 2"><g id="Layer_1-2" data-name="Layer 1"><path class="cls-1" d="M24.85,13.19a.6.6,0,0,0,.61-.6V9.37a.6.6,0,0,0-.61-.6H5.15a.6.6,0,0,0-.61.6v3.22a.6.6,0,0,0,.61.6,1.81,1.81,0,0,1,0,3.62.6.6,0,0,0-.61.6v3.22a.6.6,0,0,0,.61.6h19.7a.6.6,0,0,0,.61-.6V17.41a.6.6,0,0,0-.61-.6,1.81,1.81,0,0,1,0-3.62ZM24.25,18V20H11.58V18.22a.6.6,0,1,0-1.2,0V20H5.75V18a3,3,0,0,0,0-5.92V10h4.63v1.81a.6.6,0,1,0,1.2,0V10H24.25V12a3,3,0,0,0,0,5.92Z"/><rect class="cls-2" width="30" height="30"/></g></g></svg>