<svg xmlns="http://www.w3.org/2000/svg" viewBox="0 0 30 30" width="50" height="50"><defs><style>.cls-1{fill:#000333;}.cls-2{fill:none;}</style></defs><g id="Layer_2" data-name="Layer 2"><g id="Layer_1-2" data-name="Layer 1"><path class="cls-1" d="M23.78,7.82H21.86V5.55A.58.58,0,0,0,21.27,5H8.73a.58.58,0,0,0-.59.59V7.82H6.8V7.16a.59.59,0,1,0-1.17,0V10A.59.59,0,1,0,6.8,10V9H8.14v2.24a.58.58,0,0,0,.59.58H21.27a.58.58,0,0,0,.59-.58V9H23.2v3.66l-8.34,2.08a.6.6,0,0,0-.45.57v1.93h-.66a.58.58,0,0,0-.59.55c-.34,5.38-.32,5-.32,5.05a2.18,2.18,0,0,0,.63,1.54,2.1,2.1,0,0,0,3.06,0,2.22,2.22,0,0,0,.63-1.54s0,.33-.32-5.05a.58.58,0,0,0-.59-.55h-.66V15.77l8.34-2.08a.59.59,0,0,0,.44-.57V8.41A.59.59,0,0,0,23.78,7.82Zm-3.09,2.83H9.31V6.14H20.69ZM16,22.86a1,1,0,1,1-2,0l.28-4.45h1.4Z"/><rect class="cls-2" width="30" height="30"/></g></g></svg>