<svg xmlns="http://www.w3.org/2000/svg" viewBox="0 0 30 30" width="50" height="50"><defs><style>.cls-1{fill:red;}.cls-2{fill:none;}</style></defs><g id="Layer_2" data-name="Layer 2"><g id="Layer_1-2" data-name="Layer 1"><g id="Path_324" data-name="Path 324"><path class="cls-1" d="M15,22.49a34.1,34.1,0,0,0,5.13-4.65,15.35,15.35,0,0,0,2.78-4.36c.75-1.92.73-3.55-.07-4.71A3.85,3.85,0,0,0,19.6,7.19,4.46,4.46,0,0,0,16,8.94l-1,1.34L14,8.94A4.46,4.46,0,0,0,10.4,7.19,3.85,3.85,0,0,0,7.16,8.77c-.8,1.16-.82,2.79-.07,4.71a15.35,15.35,0,0,0,2.78,4.36A34.1,34.1,0,0,0,15,22.49m0,1.62C9.75,20.31,7,16.85,5.87,14,3.86,8.79,7,5.89,10.4,5.89A5.78,5.78,0,0,1,15,8.14a5.78,5.78,0,0,1,4.6-2.25c3.38,0,6.54,2.9,4.53,8.07C23,16.85,20.25,20.31,15,24.11Z"/></g><rect class="cls-2" width="30" height="30"/></g></g></svg>