<svg xmlns="http://www.w3.org/2000/svg" viewBox="0 0 30 30"><defs><style>.cls-1{fill:#333;}.cls-2{fill:none;}</style></defs><g id="Layer_2" data-name="Layer 2"><g id="Layer_1-2" data-name="Layer 1"><g id="Page-1"><g id="_008---Yoga-Mat" data-name="008---Yoga-Mat"><g id="Shape"><path class="cls-1" d="M26.06,13.88H19.74a4.76,4.76,0,0,0,.58-2.27,4.94,4.94,0,0,0-7.53-4.25,4.86,4.86,0,0,0-.88.67L5,14.92a5,5,0,0,0,3.51,8.46h8.76a.4.4,0,0,0,.27-.11c.61-.62,2.26-2.25,4-4l4.79-4.76a.38.38,0,0,0-.27-.65ZM12.44,8.58A4.06,4.06,0,0,1,13.18,8a4.17,4.17,0,0,1,5.75,5.75,4.44,4.44,0,0,1-.55.74l-5,5a5.09,5.09,0,0,0,.13-1.1,5,5,0,0,0-5-4.95,5.1,5.1,0,0,0-1.11.12ZM4.33,18.43a4.15,4.15,0,0,1,1.22-3h0a4.2,4.2,0,1,1-1.22,3ZM21,18.75l-3.88,3.87h-6a4.89,4.89,0,0,0,.87-.69l6.9-6.9q.18-.19.33-.39h5.89L21,18.75Z"/><path class="cls-1" d="M17.28,23.63H8.52a5.21,5.21,0,0,1-3.69-8.88l6.9-6.89a4.5,4.5,0,0,1,.93-.71,5.18,5.18,0,0,1,7.91,4.46,5.05,5.05,0,0,1-.43,2h5.92a.63.63,0,0,1,.58.39.62.62,0,0,1-.14.68l-4.79,4.77-.55.55-3.44,3.42A.61.61,0,0,1,17.28,23.63ZM15.39,6.87a4.76,4.76,0,0,0-2.47.7,4.44,4.44,0,0,0-.84.64L5.19,15.1a4.7,4.7,0,0,0,3.33,8h8.76a.12.12,0,0,0,.09,0l3.44-3.42.55-.55,4.79-4.77a.12.12,0,0,0,0-.14.13.13,0,0,0-.12-.08H19.32l.2-.37a4.49,4.49,0,0,0,.55-2.15,4.67,4.67,0,0,0-4.68-4.74Zm-6.88,16a4.26,4.26,0,0,1-.86-.09,4.44,4.44,0,0,1-3.57-4.35h0a4.4,4.4,0,0,1,1.3-3.14l.07-.08a4.44,4.44,0,1,1,3.06,7.66ZM5.66,15.71a3.93,3.93,0,0,0-1.08,2.72h0a3.94,3.94,0,1,0,1.15-2.79Zm11.56,7.16H10.28l.74-.46a4.39,4.39,0,0,0,.82-.66l6.9-6.9a3.65,3.65,0,0,0,.31-.36l.08-.1h6.61l-.43.43-4.13,4.11c-1.64,1.63-3.2,3.18-3.88,3.87Zm-5.3-.5H17l3.81-3.79h0c1.32-1.33,2.7-2.7,3.7-3.69H19.37a2.61,2.61,0,0,1-.27.31l-6.9,6.91Zm1-2.05.2-.84a4.7,4.7,0,0,0-4.58-5.75,4.57,4.57,0,0,0-1,.12L6.62,14,12.27,8.4a4.15,4.15,0,0,1,.78-.6,4.42,4.42,0,0,1,6.09,6.1,4.71,4.71,0,0,1-.58.77ZM8.51,13.23a5.22,5.22,0,0,1,5.21,5.2c0,.13,0,.26,0,.39l4.5-4.5a4.89,4.89,0,0,0,.52-.68,3.94,3.94,0,0,0-6.1-4.88L8.13,13.24Z"/></g><g id="Shape-2" data-name="Shape"><path class="cls-1" d="M9.66,18.43a1.15,1.15,0,1,0-1.14,1.14A1.14,1.14,0,0,0,9.66,18.43Zm-1.52,0a.38.38,0,1,1,.38.38A.38.38,0,0,1,8.14,18.43Z"/><path class="cls-1" d="M8.52,19.82a1.39,1.39,0,1,1,1.39-1.39A1.4,1.4,0,0,1,8.52,19.82Zm0-2.28a.89.89,0,1,0,.89.89A.89.89,0,0,0,8.52,17.54Zm0,1.52a.63.63,0,0,1,0-1.26.63.63,0,0,1,0,1.26Zm0-.76a.13.13,0,0,0-.13.13c0,.14.26.14.26,0A.13.13,0,0,0,8.52,18.3Z"/></g><g id="Shape-3" data-name="Shape"><path class="cls-1" d="M8.9,15.76a.38.38,0,0,0-.38-.38,3,3,0,0,0-3,3,.38.38,0,0,0,.76,0,2.29,2.29,0,0,1,2.29-2.29A.38.38,0,0,0,8.9,15.76Z"/><path class="cls-1" d="M5.85,19.06a.63.63,0,0,1-.63-.63,3.3,3.3,0,0,1,3.3-3.3.63.63,0,0,1,0,1.26,2,2,0,0,0-2,2A.63.63,0,0,1,5.85,19.06Zm2.67-3.43a2.81,2.81,0,0,0-2.8,2.8c0,.14.26.14.26,0a2.54,2.54,0,0,1,2.54-2.54.13.13,0,1,0,0-.26Z"/></g><g id="Shape-4" data-name="Shape"><path class="cls-1" d="M11.18,18.05a.38.38,0,0,0-.38.38,2.28,2.28,0,0,1-2.28,2.28.39.39,0,0,0,0,.77,3.05,3.05,0,0,0,3-3.05.38.38,0,0,0-.38-.38Z"/><path class="cls-1" d="M8.52,21.73a.64.64,0,0,1,0-1.27,2,2,0,0,0,2-2,.63.63,0,1,1,1.26,0A3.31,3.31,0,0,1,8.52,21.73Zm2.66-3.43a.13.13,0,0,0-.13.13A2.54,2.54,0,0,1,8.52,21a.13.13,0,0,0-.13.13.13.13,0,0,0,.13.14,2.81,2.81,0,0,0,2.79-2.8.12.12,0,0,0,0-.09A.13.13,0,0,0,11.18,18.3Z"/></g></g></g><rect class="cls-2" width="30" height="30"/></g></g></svg>